<?xml version="1.0" encoding="UTF-8" standalone="no"?>
<!DOCTYPE svg PUBLIC "-//W3C//DTD SVG 1.1//EN"
 "http://www.w3.org/Graphics/SVG/1.1/DTD/svg11.dtd">
<!-- Generated by graphviz version 13.0.1 (20250615.1724)
 -->
<!-- Title: CI_Overview Pages: 1 -->
<svg width="485pt" height="202pt"
 viewBox="0.00 0.00 485.00 202.00" xmlns="http://www.w3.org/2000/svg" xmlns:xlink="http://www.w3.org/1999/xlink">
<g id="graph0" class="graph" transform="scale(1 1) rotate(0) translate(4 198)">
<title>CI_Overview</title>
<polygon fill="white" stroke="none" points="-4,4 -4,-198 480.75,-198 480.75,4 -4,4"/>
<!-- pre_commit -->
<g id="node1" class="node">
<title>pre_commit</title>
<path fill="none" stroke="black" d="M73,-115C73,-115 12,-115 12,-115 6,-115 0,-109 0,-103 0,-103 0,-91 0,-91 0,-85 6,-79 12,-79 12,-79 73,-79 73,-79 79,-79 85,-85 85,-91 85,-91 85,-103 85,-103 85,-109 79,-115 73,-115"/>
<text xml:space="preserve" text-anchor="middle" x="42.5" y="-91.2" font-family="Helvetica,sans-Serif" font-size="14.00">pre&#45;commit</text>
</g>
<!-- ubuntu -->
<g id="node2" class="node">
<title>ubuntu</title>
<path fill="none" stroke="black" d="M207.5,-194C207.5,-194 174.25,-194 174.25,-194 168.25,-194 162.25,-188 162.25,-182 162.25,-182 162.25,-170 162.25,-170 162.25,-164 168.25,-158 174.25,-158 174.25,-158 207.5,-158 207.5,-158 213.5,-158 219.5,-164 219.5,-170 219.5,-170 219.5,-182 219.5,-182 219.5,-188 213.5,-194 207.5,-194"/>
<text xml:space="preserve" text-anchor="middle" x="190.88" y="-170.2" font-family="Helvetica,sans-Serif" font-size="14.00">ubuntu</text>
</g>
<!-- pre_commit&#45;&gt;ubuntu -->
<g id="edge1" class="edge">
<title>pre_commit&#45;&gt;ubuntu</title>
<path fill="none" stroke="#333333" d="M42.75,-115.32C42.75,-138.66 42.75,-176 42.75,-176 42.75,-176 150.45,-176 150.45,-176"/>
<polygon fill="#333333" stroke="#333333" points="150.45,-179.5 160.45,-176 150.45,-172.5 150.45,-179.5"/>
</g>
<!-- mac -->
<g id="node3" class="node">
<title>mac</title>
<path fill="none" stroke="black" d="M205.88,-115C205.88,-115 175.88,-115 175.88,-115 169.88,-115 163.88,-109 163.88,-103 163.88,-103 163.88,-91 163.88,-91 163.88,-85 169.88,-79 175.88,-79 175.88,-79 205.88,-79 205.88,-79 211.88,-79 217.88,-85 217.88,-91 217.88,-91 217.88,-103 217.88,-103 217.88,-109 211.88,-115 205.88,-115"/>
<text xml:space="preserve" text-anchor="middle" x="190.88" y="-91.2" font-family="Helvetica,sans-Serif" font-size="14.00">mac</text>
</g>
<!-- pre_commit&#45;&gt;mac -->
<g id="edge2" class="edge">
<title>pre_commit&#45;&gt;mac</title>
<path fill="none" stroke="#333333" d="M85.42,-97C85.42,-97 151.97,-97 151.97,-97"/>
<polygon fill="#333333" stroke="#333333" points="151.97,-100.5 161.97,-97 151.97,-93.5 151.97,-100.5"/>
</g>
<!-- windows -->
<g id="node4" class="node">
<title>windows</title>
<path fill="none" stroke="black" d="M212.75,-36C212.75,-36 169,-36 169,-36 163,-36 157,-30 157,-24 157,-24 157,-12 157,-12 157,-6 163,0 169,0 169,0 212.75,0 212.75,0 218.75,0 224.75,-6 224.75,-12 224.75,-12 224.75,-24 224.75,-24 224.75,-30 218.75,-36 212.75,-36"/>
<text xml:space="preserve" text-anchor="middle" x="190.88" y="-12.2" font-family="Helvetica,sans-Serif" font-size="14.00">windows</text>
</g>
<!-- pre_commit&#45;&gt;windows -->
<g id="edge3" class="edge">
<title>pre_commit&#45;&gt;windows</title>
<path fill="none" stroke="#333333" d="M42.75,-78.68C42.75,-55.34 42.75,-18 42.75,-18 42.75,-18 145.01,-18 145.01,-18"/>
<polygon fill="#333333" stroke="#333333" points="145.01,-21.5 155.01,-18 145.01,-14.5 145.01,-21.5"/>
</g>
<!-- ubuntu&#45;&gt;mac -->
<!-- perf -->
<g id="node5" class="node">
<title>perf</title>
<path fill="none" stroke="black" d="M338.75,-115C338.75,-115 308.75,-115 308.75,-115 302.75,-115 296.75,-109 296.75,-103 296.75,-103 296.75,-91 296.75,-91 296.75,-85 302.75,-79 308.75,-79 308.75,-79 338.75,-79 338.75,-79 344.75,-79 350.75,-85 350.75,-91 350.75,-91 350.75,-103 350.75,-103 350.75,-109 344.75,-115 338.75,-115"/>
<text xml:space="preserve" text-anchor="middle" x="323.75" y="-91.2" font-family="Helvetica,sans-Serif" font-size="14.00">perf</text>
</g>
<!-- ubuntu&#45;&gt;perf -->
<g id="edge4" class="edge">
<title>ubuntu&#45;&gt;perf</title>
<path fill="none" stroke="#333333" d="M219.71,-176C258.79,-176 323.75,-176 323.75,-176 323.75,-176 323.75,-126.84 323.75,-126.84"/>
<polygon fill="#333333" stroke="#333333" points="327.25,-126.84 323.75,-116.84 320.25,-126.84 327.25,-126.84"/>
</g>
<!-- mac&#45;&gt;windows -->
<!-- mac&#45;&gt;perf -->
<g id="edge5" class="edge">
<title>mac&#45;&gt;perf</title>
<path fill="none" stroke="#333333" d="M218.08,-97C218.08,-97 285.06,-97 285.06,-97"/>
<polygon fill="#333333" stroke="#333333" points="285.06,-100.5 295.06,-97 285.06,-93.5 285.06,-100.5"/>
</g>
<!-- windows&#45;&gt;perf -->
<g id="edge6" class="edge">
<title>windows&#45;&gt;perf</title>
<path fill="none" stroke="#333333" d="M225.09,-18C264.46,-18 323.75,-18 323.75,-18 323.75,-18 323.75,-67.16 323.75,-67.16"/>
<polygon fill="#333333" stroke="#333333" points="320.25,-67.16 323.75,-77.16 327.25,-67.16 320.25,-67.16"/>
</g>
<!-- pages -->
<g id="node6" class="node">
<title>pages</title>
<path fill="none" stroke="black" d="M464.75,-115C464.75,-115 434.75,-115 434.75,-115 428.75,-115 422.75,-109 422.75,-103 422.75,-103 422.75,-91 422.75,-91 422.75,-85 428.75,-79 434.75,-79 434.75,-79 464.75,-79 464.75,-79 470.75,-79 476.75,-85 476.75,-91 476.75,-91 476.75,-103 476.75,-103 476.75,-109 470.75,-115 464.75,-115"/>
<text xml:space="preserve" text-anchor="middle" x="449.75" y="-91.2" font-family="Helvetica,sans-Serif" font-size="14.00">pages</text>
</g>
<!-- perf&#45;&gt;pages -->
<g id="edge7" class="edge">
<title>perf&#45;&gt;pages</title>
<path fill="none" stroke="#333333" d="M351.09,-97C351.09,-97 410.95,-97 410.95,-97"/>
<polygon fill="#333333" stroke="#333333" points="410.95,-100.5 420.95,-97 410.95,-93.5 410.95,-100.5"/>
</g>
</g>
</svg>
