<?xml version="1.0" encoding="UTF-8" standalone="no"?>
<!DOCTYPE svg PUBLIC "-//W3C//DTD SVG 1.1//EN"
 "http://www.w3.org/Graphics/SVG/1.1/DTD/svg11.dtd">
<!-- Generated by graphviz version 12.2.1 (20241206.2353)
 -->
<!-- Pages: 1 -->
<svg width="1326pt" height="404pt"
 viewBox="0.00 0.00 1325.63 404.00" xmlns="http://www.w3.org/2000/svg" xmlns:xlink="http://www.w3.org/1999/xlink">
<g id="graph0" class="graph" transform="scale(1 1) rotate(0) translate(4 400)">
<polygon fill="white" stroke="none" points="-4,4 -4,-400 1321.63,-400 1321.63,4 -4,4"/>
<!-- clang&#45;format -->
<g id="node1" class="node">
<title>clang&#45;format</title>
<ellipse fill="none" stroke="black" cx="723.42" cy="-378" rx="59.03" ry="18"/>
<text text-anchor="middle" x="723.42" y="-372.95" font-family="Times,serif" font-size="14.00">clang&#45;format</text>
</g>
<!-- ubuntu&#45;gcc&#45;build -->
<g id="node3" class="node">
<title>ubuntu&#45;gcc&#45;build</title>
<ellipse fill="none" stroke="black" cx="833.42" cy="-306" rx="74.38" ry="18"/>
<text text-anchor="middle" x="833.42" y="-300.95" font-family="Times,serif" font-size="14.00">ubuntu&#45;gcc&#45;build</text>
</g>
<!-- clang&#45;format&#45;&gt;ubuntu&#45;gcc&#45;build -->
<g id="edge1" class="edge">
<title>clang&#45;format&#45;&gt;ubuntu&#45;gcc&#45;build</title>
<path fill="none" stroke="black" d="M748.11,-361.29C763.04,-351.79 782.31,-339.53 798.75,-329.06"/>
<polygon fill="black" stroke="black" points="800.22,-332.28 806.78,-323.96 796.46,-326.37 800.22,-332.28"/>
</g>
<!-- ubuntu&#45;clang&#45;build -->
<g id="node6" class="node">
<title>ubuntu&#45;clang&#45;build</title>
<ellipse fill="none" stroke="black" cx="659.42" cy="-306" rx="81.55" ry="18"/>
<text text-anchor="middle" x="659.42" y="-300.95" font-family="Times,serif" font-size="14.00">ubuntu&#45;clang&#45;build</text>
</g>
<!-- clang&#45;format&#45;&gt;ubuntu&#45;clang&#45;build -->
<g id="edge5" class="edge">
<title>clang&#45;format&#45;&gt;ubuntu&#45;clang&#45;build</title>
<path fill="none" stroke="black" d="M708.25,-360.41C700.56,-351.99 691.04,-341.58 682.46,-332.2"/>
<polygon fill="black" stroke="black" points="685.28,-330.09 675.95,-325.07 680.11,-334.82 685.28,-330.09"/>
</g>
<!-- macos&#45;clang&#45;build -->
<g id="node12" class="node">
<title>macos&#45;clang&#45;build</title>
<ellipse fill="none" stroke="black" cx="1005.42" cy="-306" rx="80.01" ry="18"/>
<text text-anchor="middle" x="1005.42" y="-300.95" font-family="Times,serif" font-size="14.00">macos&#45;clang&#45;build</text>
</g>
<!-- clang&#45;format&#45;&gt;macos&#45;clang&#45;build -->
<g id="edge12" class="edge">
<title>clang&#45;format&#45;&gt;macos&#45;clang&#45;build</title>
<path fill="none" stroke="black" d="M768.11,-365.91C815.08,-354.25 889.38,-335.8 942.33,-322.66"/>
<polygon fill="black" stroke="black" points="942.95,-326.11 951.81,-320.31 941.27,-319.32 942.95,-326.11"/>
</g>
<!-- windows&#45;msvc&#45;build -->
<g id="node15" class="node">
<title>windows&#45;msvc&#45;build</title>
<ellipse fill="none" stroke="black" cx="274.42" cy="-306" rx="89.23" ry="18"/>
<text text-anchor="middle" x="274.42" y="-300.95" font-family="Times,serif" font-size="14.00">windows&#45;msvc&#45;build</text>
</g>
<!-- clang&#45;format&#45;&gt;windows&#45;msvc&#45;build -->
<g id="edge16" class="edge">
<title>clang&#45;format&#45;&gt;windows&#45;msvc&#45;build</title>
<path fill="none" stroke="black" d="M680.06,-365.35C671.91,-363.39 663.43,-361.51 655.42,-360 530.81,-336.58 497.81,-342.84 372.42,-324 365.33,-322.94 357.97,-321.77 350.6,-320.56"/>
<polygon fill="black" stroke="black" points="351.39,-317.14 340.95,-318.95 350.24,-324.05 351.39,-317.14"/>
</g>
<!-- windows&#45;clang&#45;build -->
<g id="node18" class="node">
<title>windows&#45;clang&#45;build</title>
<ellipse fill="none" stroke="black" cx="470.42" cy="-306" rx="89.23" ry="18"/>
<text text-anchor="middle" x="470.42" y="-300.95" font-family="Times,serif" font-size="14.00">windows&#45;clang&#45;build</text>
</g>
<!-- clang&#45;format&#45;&gt;windows&#45;clang&#45;build -->
<g id="edge20" class="edge">
<title>clang&#45;format&#45;&gt;windows&#45;clang&#45;build</title>
<path fill="none" stroke="black" d="M680.79,-365.2C640.2,-353.97 578.64,-336.94 532.59,-324.2"/>
<polygon fill="black" stroke="black" points="533.56,-320.84 522.99,-321.54 531.69,-327.58 533.56,-320.84"/>
</g>
<!-- python&#45;lint -->
<g id="node2" class="node">
<title>python&#45;lint</title>
<ellipse fill="none" stroke="black" cx="594.42" cy="-378" rx="51.86" ry="18"/>
<text text-anchor="middle" x="594.42" y="-372.95" font-family="Times,serif" font-size="14.00">python&#45;lint</text>
</g>
<!-- python&#45;lint&#45;&gt;ubuntu&#45;gcc&#45;build -->
<g id="edge2" class="edge">
<title>python&#45;lint&#45;&gt;ubuntu&#45;gcc&#45;build</title>
<path fill="none" stroke="black" d="M633.09,-365.68C671.94,-354.3 732.25,-336.63 776.55,-323.66"/>
<polygon fill="black" stroke="black" points="777.38,-327.06 786,-320.89 775.42,-320.34 777.38,-327.06"/>
</g>
<!-- python&#45;lint&#45;&gt;ubuntu&#45;clang&#45;build -->
<g id="edge6" class="edge">
<title>python&#45;lint&#45;&gt;ubuntu&#45;clang&#45;build</title>
<path fill="none" stroke="black" d="M609.83,-360.41C617.64,-351.99 627.31,-341.58 636.02,-332.2"/>
<polygon fill="black" stroke="black" points="638.41,-334.77 642.65,-325.07 633.28,-330.01 638.41,-334.77"/>
</g>
<!-- python&#45;lint&#45;&gt;macos&#45;clang&#45;build -->
<g id="edge13" class="edge">
<title>python&#45;lint&#45;&gt;macos&#45;clang&#45;build</title>
<path fill="none" stroke="black" d="M632.63,-365.5C640.14,-363.48 647.99,-361.54 655.42,-360 770.08,-336.23 800.87,-342.99 916.42,-324 922.79,-322.95 929.39,-321.81 936.01,-320.62"/>
<polygon fill="black" stroke="black" points="936.4,-324.1 945.6,-318.86 935.14,-317.22 936.4,-324.1"/>
</g>
<!-- python&#45;lint&#45;&gt;windows&#45;msvc&#45;build -->
<g id="edge17" class="edge">
<title>python&#45;lint&#45;&gt;windows&#45;msvc&#45;build</title>
<path fill="none" stroke="black" d="M551.27,-367.56C498.24,-355.96 407.56,-336.12 344.49,-322.33"/>
<polygon fill="black" stroke="black" points="345.44,-318.95 334.92,-320.23 343.94,-325.79 345.44,-318.95"/>
</g>
<!-- python&#45;lint&#45;&gt;windows&#45;clang&#45;build -->
<g id="edge21" class="edge">
<title>python&#45;lint&#45;&gt;windows&#45;clang&#45;build</title>
<path fill="none" stroke="black" d="M568.12,-362.15C551.01,-352.49 528.39,-339.72 509.23,-328.91"/>
<polygon fill="black" stroke="black" points="511.03,-325.9 500.6,-324.03 507.58,-332 511.03,-325.9"/>
</g>
<!-- ubuntu&#45;gcc&#45;test -->
<g id="node4" class="node">
<title>ubuntu&#45;gcc&#45;test</title>
<ellipse fill="none" stroke="black" cx="962.42" cy="-234" rx="68.24" ry="18"/>
<text text-anchor="middle" x="962.42" y="-228.95" font-family="Times,serif" font-size="14.00">ubuntu&#45;gcc&#45;test</text>
</g>
<!-- ubuntu&#45;gcc&#45;build&#45;&gt;ubuntu&#45;gcc&#45;test -->
<g id="edge3" class="edge">
<title>ubuntu&#45;gcc&#45;build&#45;&gt;ubuntu&#45;gcc&#45;test</title>
<path fill="none" stroke="black" d="M862.69,-289.12C880.8,-279.29 904.24,-266.57 923.85,-255.93"/>
<polygon fill="black" stroke="black" points="925.26,-259.15 932.38,-251.3 921.92,-253 925.26,-259.15"/>
</g>
<!-- ubuntu&#45;gcc&#45;test&#45;extended -->
<g id="node5" class="node">
<title>ubuntu&#45;gcc&#45;test&#45;extended</title>
<ellipse fill="none" stroke="black" cx="974.42" cy="-162" rx="104.58" ry="18"/>
<text text-anchor="middle" x="974.42" y="-156.95" font-family="Times,serif" font-size="14.00">ubuntu&#45;gcc&#45;test&#45;extended</text>
</g>
<!-- ubuntu&#45;gcc&#45;test&#45;&gt;ubuntu&#45;gcc&#45;test&#45;extended -->
<g id="edge4" class="edge">
<title>ubuntu&#45;gcc&#45;test&#45;&gt;ubuntu&#45;gcc&#45;test&#45;extended</title>
<path fill="none" stroke="black" d="M965.39,-215.7C966.65,-208.32 968.16,-199.52 969.58,-191.25"/>
<polygon fill="black" stroke="black" points="972.99,-192.04 971.23,-181.6 966.09,-190.86 972.99,-192.04"/>
</g>
<!-- ubuntu&#45;gcc&#45;build&#45;codecov -->
<g id="node21" class="node">
<title>ubuntu&#45;gcc&#45;build&#45;codecov</title>
<ellipse fill="none" stroke="black" cx="960.42" cy="-90" rx="108.16" ry="18"/>
<text text-anchor="middle" x="960.42" y="-84.95" font-family="Times,serif" font-size="14.00">ubuntu&#45;gcc&#45;build&#45;codecov</text>
</g>
<!-- ubuntu&#45;gcc&#45;test&#45;extended&#45;&gt;ubuntu&#45;gcc&#45;build&#45;codecov -->
<g id="edge24" class="edge">
<title>ubuntu&#45;gcc&#45;test&#45;extended&#45;&gt;ubuntu&#45;gcc&#45;build&#45;codecov</title>
<path fill="none" stroke="black" d="M970.96,-143.7C969.49,-136.32 967.73,-127.52 966.07,-119.25"/>
<polygon fill="black" stroke="black" points="969.53,-118.71 964.14,-109.59 962.67,-120.08 969.53,-118.71"/>
</g>
<!-- ubuntu&#45;clang&#45;test -->
<g id="node7" class="node">
<title>ubuntu&#45;clang&#45;test</title>
<ellipse fill="none" stroke="black" cx="764.42" cy="-234" rx="75.41" ry="18"/>
<text text-anchor="middle" x="764.42" y="-228.95" font-family="Times,serif" font-size="14.00">ubuntu&#45;clang&#45;test</text>
</g>
<!-- ubuntu&#45;clang&#45;build&#45;&gt;ubuntu&#45;clang&#45;test -->
<g id="edge7" class="edge">
<title>ubuntu&#45;clang&#45;build&#45;&gt;ubuntu&#45;clang&#45;test</title>
<path fill="none" stroke="black" d="M684.31,-288.41C698.04,-279.26 715.29,-267.76 730.26,-257.77"/>
<polygon fill="black" stroke="black" points="732.08,-260.77 738.46,-252.31 728.2,-254.94 732.08,-260.77"/>
</g>
<!-- ubuntu&#45;clang&#45;sanitizer&#45;build -->
<g id="node9" class="node">
<title>ubuntu&#45;clang&#45;sanitizer&#45;build</title>
<ellipse fill="none" stroke="black" cx="555.42" cy="-234" rx="115.84" ry="18"/>
<text text-anchor="middle" x="555.42" y="-228.95" font-family="Times,serif" font-size="14.00">ubuntu&#45;clang&#45;sanitizer&#45;build</text>
</g>
<!-- ubuntu&#45;clang&#45;build&#45;&gt;ubuntu&#45;clang&#45;sanitizer&#45;build -->
<g id="edge9" class="edge">
<title>ubuntu&#45;clang&#45;build&#45;&gt;ubuntu&#45;clang&#45;sanitizer&#45;build</title>
<path fill="none" stroke="black" d="M634.78,-288.41C621.37,-279.39 604.58,-268.09 589.9,-258.21"/>
<polygon fill="black" stroke="black" points="592.12,-255.48 581.87,-252.8 588.21,-261.29 592.12,-255.48"/>
</g>
<!-- ubuntu&#45;clang&#45;test&#45;extended -->
<g id="node8" class="node">
<title>ubuntu&#45;clang&#45;test&#45;extended</title>
<ellipse fill="none" stroke="black" cx="740.42" cy="-162" rx="111.74" ry="18"/>
<text text-anchor="middle" x="740.42" y="-156.95" font-family="Times,serif" font-size="14.00">ubuntu&#45;clang&#45;test&#45;extended</text>
</g>
<!-- ubuntu&#45;clang&#45;test&#45;&gt;ubuntu&#45;clang&#45;test&#45;extended -->
<g id="edge8" class="edge">
<title>ubuntu&#45;clang&#45;test&#45;&gt;ubuntu&#45;clang&#45;test&#45;extended</title>
<path fill="none" stroke="black" d="M758.49,-215.7C755.93,-208.24 752.88,-199.32 750.01,-190.97"/>
<polygon fill="black" stroke="black" points="753.33,-189.86 746.78,-181.54 746.71,-192.13 753.33,-189.86"/>
</g>
<!-- ubuntu&#45;clang&#45;test&#45;extended&#45;&gt;ubuntu&#45;gcc&#45;build&#45;codecov -->
<g id="edge25" class="edge">
<title>ubuntu&#45;clang&#45;test&#45;extended&#45;&gt;ubuntu&#45;gcc&#45;build&#45;codecov</title>
<path fill="none" stroke="black" d="M789.52,-145.38C822.57,-134.86 866.34,-120.94 901.3,-109.81"/>
<polygon fill="black" stroke="black" points="901.94,-113.28 910.41,-106.91 899.82,-106.61 901.94,-113.28"/>
</g>
<!-- ubuntu&#45;clang&#45;sanitizer&#45;test -->
<g id="node10" class="node">
<title>ubuntu&#45;clang&#45;sanitizer&#45;test</title>
<ellipse fill="none" stroke="black" cx="501.42" cy="-162" rx="109.7" ry="18"/>
<text text-anchor="middle" x="501.42" y="-156.95" font-family="Times,serif" font-size="14.00">ubuntu&#45;clang&#45;sanitizer&#45;test</text>
</g>
<!-- ubuntu&#45;clang&#45;sanitizer&#45;build&#45;&gt;ubuntu&#45;clang&#45;sanitizer&#45;test -->
<g id="edge10" class="edge">
<title>ubuntu&#45;clang&#45;sanitizer&#45;build&#45;&gt;ubuntu&#45;clang&#45;sanitizer&#45;test</title>
<path fill="none" stroke="black" d="M542.07,-215.7C535.86,-207.64 528.34,-197.89 521.47,-188.98"/>
<polygon fill="black" stroke="black" points="524.42,-187.08 515.54,-181.3 518.88,-191.36 524.42,-187.08"/>
</g>
<!-- ubuntu&#45;clang&#45;sanitizer&#45;test&#45;extended -->
<g id="node11" class="node">
<title>ubuntu&#45;clang&#45;sanitizer&#45;test&#45;extended</title>
<ellipse fill="none" stroke="black" cx="659.42" cy="-90" rx="146.04" ry="18"/>
<text text-anchor="middle" x="659.42" y="-84.95" font-family="Times,serif" font-size="14.00">ubuntu&#45;clang&#45;sanitizer&#45;test&#45;extended</text>
</g>
<!-- ubuntu&#45;clang&#45;sanitizer&#45;test&#45;&gt;ubuntu&#45;clang&#45;sanitizer&#45;test&#45;extended -->
<g id="edge11" class="edge">
<title>ubuntu&#45;clang&#45;sanitizer&#45;test&#45;&gt;ubuntu&#45;clang&#45;sanitizer&#45;test&#45;extended</title>
<path fill="none" stroke="black" d="M538.47,-144.59C560.14,-134.99 587.75,-122.76 611.11,-112.4"/>
<polygon fill="black" stroke="black" points="612.4,-115.66 620.13,-108.41 609.57,-109.26 612.4,-115.66"/>
</g>
<!-- ubuntu&#45;gcc&#45;build&#45;perf&#45;stats -->
<g id="node22" class="node">
<title>ubuntu&#45;gcc&#45;build&#45;perf&#45;stats</title>
<ellipse fill="none" stroke="black" cx="517.42" cy="-18" rx="111.74" ry="18"/>
<text text-anchor="middle" x="517.42" y="-12.95" font-family="Times,serif" font-size="14.00">ubuntu&#45;gcc&#45;build&#45;perf&#45;stats</text>
</g>
<!-- ubuntu&#45;clang&#45;sanitizer&#45;test&#45;extended&#45;&gt;ubuntu&#45;gcc&#45;build&#45;perf&#45;stats -->
<g id="edge28" class="edge">
<title>ubuntu&#45;clang&#45;sanitizer&#45;test&#45;extended&#45;&gt;ubuntu&#45;gcc&#45;build&#45;perf&#45;stats</title>
<path fill="none" stroke="black" d="M625.05,-72.05C605.81,-62.57 581.63,-50.65 561.06,-40.51"/>
<polygon fill="black" stroke="black" points="562.86,-37.5 552.35,-36.22 559.77,-43.78 562.86,-37.5"/>
</g>
<!-- macos&#45;clang&#45;test -->
<g id="node13" class="node">
<title>macos&#45;clang&#45;test</title>
<ellipse fill="none" stroke="black" cx="1165.42" cy="-234" rx="73.87" ry="18"/>
<text text-anchor="middle" x="1165.42" y="-228.95" font-family="Times,serif" font-size="14.00">macos&#45;clang&#45;test</text>
</g>
<!-- macos&#45;clang&#45;build&#45;&gt;macos&#45;clang&#45;test -->
<g id="edge14" class="edge">
<title>macos&#45;clang&#45;build&#45;&gt;macos&#45;clang&#45;test</title>
<path fill="none" stroke="black" d="M1040.93,-289.46C1064.29,-279.24 1095.08,-265.78 1120.19,-254.79"/>
<polygon fill="black" stroke="black" points="1121.42,-258.07 1129.18,-250.86 1118.61,-251.66 1121.42,-258.07"/>
</g>
<!-- macos&#45;clang&#45;test&#45;extended -->
<g id="node14" class="node">
<title>macos&#45;clang&#45;test&#45;extended</title>
<ellipse fill="none" stroke="black" cx="1207.42" cy="-162" rx="110.21" ry="18"/>
<text text-anchor="middle" x="1207.42" y="-156.95" font-family="Times,serif" font-size="14.00">macos&#45;clang&#45;test&#45;extended</text>
</g>
<!-- macos&#45;clang&#45;test&#45;&gt;macos&#45;clang&#45;test&#45;extended -->
<g id="edge15" class="edge">
<title>macos&#45;clang&#45;test&#45;&gt;macos&#45;clang&#45;test&#45;extended</title>
<path fill="none" stroke="black" d="M1175.8,-215.7C1180.48,-207.9 1186.12,-198.51 1191.32,-189.83"/>
<polygon fill="black" stroke="black" points="1194.24,-191.78 1196.38,-181.4 1188.23,-188.18 1194.24,-191.78"/>
</g>
<!-- macos&#45;clang&#45;test&#45;extended&#45;&gt;ubuntu&#45;gcc&#45;build&#45;codecov -->
<g id="edge26" class="edge">
<title>macos&#45;clang&#45;test&#45;extended&#45;&gt;ubuntu&#45;gcc&#45;build&#45;codecov</title>
<path fill="none" stroke="black" d="M1154.13,-145.9C1116.15,-135.13 1064.9,-120.61 1024.66,-109.2"/>
<polygon fill="black" stroke="black" points="1025.65,-105.85 1015.07,-106.49 1023.74,-112.58 1025.65,-105.85"/>
</g>
<!-- windows&#45;msvc&#45;test -->
<g id="node16" class="node">
<title>windows&#45;msvc&#45;test</title>
<ellipse fill="none" stroke="black" cx="150.42" cy="-234" rx="83.08" ry="18"/>
<text text-anchor="middle" x="150.42" y="-228.95" font-family="Times,serif" font-size="14.00">windows&#45;msvc&#45;test</text>
</g>
<!-- windows&#45;msvc&#45;build&#45;&gt;windows&#45;msvc&#45;test -->
<g id="edge18" class="edge">
<title>windows&#45;msvc&#45;build&#45;&gt;windows&#45;msvc&#45;test</title>
<path fill="none" stroke="black" d="M245.35,-288.59C228.64,-279.15 207.43,-267.18 189.3,-256.95"/>
<polygon fill="black" stroke="black" points="191.06,-253.92 180.63,-252.05 187.62,-260.02 191.06,-253.92"/>
</g>
<!-- windows&#45;msvc&#45;test&#45;extended -->
<g id="node17" class="node">
<title>windows&#45;msvc&#45;test&#45;extended</title>
<ellipse fill="none" stroke="black" cx="119.42" cy="-90" rx="119.42" ry="18"/>
<text text-anchor="middle" x="119.42" y="-84.95" font-family="Times,serif" font-size="14.00">windows&#45;msvc&#45;test&#45;extended</text>
</g>
<!-- windows&#45;msvc&#45;test&#45;&gt;windows&#45;msvc&#45;test&#45;extended -->
<g id="edge19" class="edge">
<title>windows&#45;msvc&#45;test&#45;&gt;windows&#45;msvc&#45;test&#45;extended</title>
<path fill="none" stroke="black" d="M146.62,-215.59C141.36,-191.5 131.81,-147.75 125.54,-119.03"/>
<polygon fill="black" stroke="black" points="129.03,-118.61 123.48,-109.59 122.19,-120.11 129.03,-118.61"/>
</g>
<!-- windows&#45;msvc&#45;test&#45;extended&#45;&gt;ubuntu&#45;gcc&#45;build&#45;perf&#45;stats -->
<g id="edge30" class="edge">
<title>windows&#45;msvc&#45;test&#45;extended&#45;&gt;ubuntu&#45;gcc&#45;build&#45;perf&#45;stats</title>
<path fill="none" stroke="black" d="M195.22,-75.67C263.08,-63.73 362.47,-46.25 432.88,-33.87"/>
<polygon fill="black" stroke="black" points="433.19,-37.37 442.43,-32.19 431.98,-30.47 433.19,-37.37"/>
</g>
<!-- windows&#45;clang&#45;test -->
<g id="node19" class="node">
<title>windows&#45;clang&#45;test</title>
<ellipse fill="none" stroke="black" cx="338.42" cy="-234" rx="83.08" ry="18"/>
<text text-anchor="middle" x="338.42" y="-228.95" font-family="Times,serif" font-size="14.00">windows&#45;clang&#45;test</text>
</g>
<!-- windows&#45;clang&#45;build&#45;&gt;windows&#45;clang&#45;test -->
<g id="edge22" class="edge">
<title>windows&#45;clang&#45;build&#45;&gt;windows&#45;clang&#45;test</title>
<path fill="none" stroke="black" d="M439.81,-288.76C421.73,-279.18 398.63,-266.93 379.04,-256.54"/>
<polygon fill="black" stroke="black" points="380.68,-253.45 370.21,-251.86 377.4,-259.63 380.68,-253.45"/>
</g>
<!-- windows&#45;clang&#45;test&#45;extended -->
<g id="node20" class="node">
<title>windows&#45;clang&#45;test&#45;extended</title>
<ellipse fill="none" stroke="black" cx="376.42" cy="-90" rx="119.42" ry="18"/>
<text text-anchor="middle" x="376.42" y="-84.95" font-family="Times,serif" font-size="14.00">windows&#45;clang&#45;test&#45;extended</text>
</g>
<!-- windows&#45;clang&#45;test&#45;&gt;windows&#45;clang&#45;test&#45;extended -->
<g id="edge23" class="edge">
<title>windows&#45;clang&#45;test&#45;&gt;windows&#45;clang&#45;test&#45;extended</title>
<path fill="none" stroke="black" d="M343.08,-215.59C349.53,-191.5 361.23,-147.75 368.92,-119.03"/>
<polygon fill="black" stroke="black" points="372.25,-120.14 371.45,-109.57 365.49,-118.33 372.25,-120.14"/>
</g>
<!-- windows&#45;clang&#45;test&#45;extended&#45;&gt;ubuntu&#45;gcc&#45;build&#45;perf&#45;stats -->
<g id="edge29" class="edge">
<title>windows&#45;clang&#45;test&#45;extended&#45;&gt;ubuntu&#45;gcc&#45;build&#45;perf&#45;stats</title>
<path fill="none" stroke="black" d="M409.84,-72.41C429.06,-62.87 453.44,-50.77 474.12,-40.5"/>
<polygon fill="black" stroke="black" points="475.49,-43.72 482.89,-36.14 472.38,-37.45 475.49,-43.72"/>
</g>
<!-- ubuntu&#45;gcc&#45;build&#45;codecov&#45;&gt;ubuntu&#45;gcc&#45;build&#45;perf&#45;stats -->
<g id="edge27" class="edge">
<title>ubuntu&#45;gcc&#45;build&#45;codecov&#45;&gt;ubuntu&#45;gcc&#45;build&#45;perf&#45;stats</title>
<path fill="none" stroke="black" d="M884.02,-76.93C806.83,-64.73 687.68,-45.9 606.31,-33.05"/>
<polygon fill="black" stroke="black" points="607.01,-29.61 596.59,-31.51 605.92,-36.53 607.01,-29.61"/>
</g>
</g>
</svg>
