<?xml version="1.0" encoding="UTF-8" standalone="no"?>
<!DOCTYPE svg PUBLIC "-//W3C//DTD SVG 1.1//EN"
 "http://www.w3.org/Graphics/SVG/1.1/DTD/svg11.dtd">
<!-- Generated by graphviz version 12.2.1 (20241206.2353)
 -->
<!-- Pages: 1 -->
<svg width="1389pt" height="332pt"
 viewBox="0.00 0.00 1388.91 332.00" xmlns="http://www.w3.org/2000/svg" xmlns:xlink="http://www.w3.org/1999/xlink">
<g id="graph0" class="graph" transform="scale(1 1) rotate(0) translate(4 328)">
<polygon fill="white" stroke="none" points="-4,4 -4,-328 1384.91,-328 1384.91,4 -4,4"/>
<!-- clang&#45;format -->
<g id="node1" class="node">
<title>clang&#45;format</title>
<ellipse fill="none" stroke="black" cx="730.56" cy="-306" rx="59.03" ry="18"/>
<text text-anchor="middle" x="730.56" y="-300.95" font-family="Times,serif" font-size="14.00">clang&#45;format</text>
</g>
<!-- ubuntu&#45;gcc&#45;build -->
<g id="node3" class="node">
<title>ubuntu&#45;gcc&#45;build</title>
<ellipse fill="none" stroke="black" cx="840.56" cy="-234" rx="74.38" ry="18"/>
<text text-anchor="middle" x="840.56" y="-228.95" font-family="Times,serif" font-size="14.00">ubuntu&#45;gcc&#45;build</text>
</g>
<!-- clang&#45;format&#45;&gt;ubuntu&#45;gcc&#45;build -->
<g id="edge1" class="edge">
<title>clang&#45;format&#45;&gt;ubuntu&#45;gcc&#45;build</title>
<path fill="none" stroke="black" d="M755.25,-289.29C770.18,-279.79 789.45,-267.53 805.89,-257.06"/>
<polygon fill="black" stroke="black" points="807.36,-260.28 813.92,-251.96 803.6,-254.37 807.36,-260.28"/>
</g>
<!-- ubuntu&#45;clang&#45;build -->
<g id="node5" class="node">
<title>ubuntu&#45;clang&#45;build</title>
<ellipse fill="none" stroke="black" cx="666.56" cy="-234" rx="81.55" ry="18"/>
<text text-anchor="middle" x="666.56" y="-228.95" font-family="Times,serif" font-size="14.00">ubuntu&#45;clang&#45;build</text>
</g>
<!-- clang&#45;format&#45;&gt;ubuntu&#45;clang&#45;build -->
<g id="edge4" class="edge">
<title>clang&#45;format&#45;&gt;ubuntu&#45;clang&#45;build</title>
<path fill="none" stroke="black" d="M715.4,-288.41C707.7,-279.99 698.18,-269.58 689.6,-260.2"/>
<polygon fill="black" stroke="black" points="692.42,-258.09 683.09,-253.07 687.25,-262.82 692.42,-258.09"/>
</g>
<!-- macos&#45;clang&#45;build -->
<g id="node9" class="node">
<title>macos&#45;clang&#45;build</title>
<ellipse fill="none" stroke="black" cx="1012.56" cy="-234" rx="80.01" ry="18"/>
<text text-anchor="middle" x="1012.56" y="-228.95" font-family="Times,serif" font-size="14.00">macos&#45;clang&#45;build</text>
</g>
<!-- clang&#45;format&#45;&gt;macos&#45;clang&#45;build -->
<g id="edge9" class="edge">
<title>clang&#45;format&#45;&gt;macos&#45;clang&#45;build</title>
<path fill="none" stroke="black" d="M775.25,-293.91C822.22,-282.25 896.53,-263.8 949.47,-250.66"/>
<polygon fill="black" stroke="black" points="950.09,-254.11 958.96,-248.31 948.41,-247.32 950.09,-254.11"/>
</g>
<!-- windows&#45;msvc&#45;build -->
<g id="node11" class="node">
<title>windows&#45;msvc&#45;build</title>
<ellipse fill="none" stroke="black" cx="281.56" cy="-234" rx="89.23" ry="18"/>
<text text-anchor="middle" x="281.56" y="-228.95" font-family="Times,serif" font-size="14.00">windows&#45;msvc&#45;build</text>
</g>
<!-- clang&#45;format&#45;&gt;windows&#45;msvc&#45;build -->
<g id="edge12" class="edge">
<title>clang&#45;format&#45;&gt;windows&#45;msvc&#45;build</title>
<path fill="none" stroke="black" d="M687.2,-293.35C679.05,-291.39 670.58,-289.51 662.56,-288 537.95,-264.58 504.95,-270.84 379.56,-252 372.48,-250.94 365.11,-249.77 357.74,-248.56"/>
<polygon fill="black" stroke="black" points="358.53,-245.14 348.09,-246.95 357.38,-252.05 358.53,-245.14"/>
</g>
<!-- windows&#45;clang&#45;build -->
<g id="node13" class="node">
<title>windows&#45;clang&#45;build</title>
<ellipse fill="none" stroke="black" cx="477.56" cy="-234" rx="89.23" ry="18"/>
<text text-anchor="middle" x="477.56" y="-228.95" font-family="Times,serif" font-size="14.00">windows&#45;clang&#45;build</text>
</g>
<!-- clang&#45;format&#45;&gt;windows&#45;clang&#45;build -->
<g id="edge15" class="edge">
<title>clang&#45;format&#45;&gt;windows&#45;clang&#45;build</title>
<path fill="none" stroke="black" d="M687.93,-293.2C647.34,-281.97 585.78,-264.94 539.73,-252.2"/>
<polygon fill="black" stroke="black" points="540.7,-248.84 530.13,-249.54 538.83,-255.58 540.7,-248.84"/>
</g>
<!-- python&#45;lint -->
<g id="node2" class="node">
<title>python&#45;lint</title>
<ellipse fill="none" stroke="black" cx="601.56" cy="-306" rx="51.86" ry="18"/>
<text text-anchor="middle" x="601.56" y="-300.95" font-family="Times,serif" font-size="14.00">python&#45;lint</text>
</g>
<!-- python&#45;lint&#45;&gt;ubuntu&#45;gcc&#45;build -->
<g id="edge2" class="edge">
<title>python&#45;lint&#45;&gt;ubuntu&#45;gcc&#45;build</title>
<path fill="none" stroke="black" d="M640.23,-293.68C679.08,-282.3 739.39,-264.63 783.7,-251.66"/>
<polygon fill="black" stroke="black" points="784.53,-255.06 793.14,-248.89 782.56,-248.34 784.53,-255.06"/>
</g>
<!-- python&#45;lint&#45;&gt;ubuntu&#45;clang&#45;build -->
<g id="edge5" class="edge">
<title>python&#45;lint&#45;&gt;ubuntu&#45;clang&#45;build</title>
<path fill="none" stroke="black" d="M616.97,-288.41C624.79,-279.99 634.45,-269.58 643.16,-260.2"/>
<polygon fill="black" stroke="black" points="645.55,-262.77 649.79,-253.07 640.42,-258.01 645.55,-262.77"/>
</g>
<!-- python&#45;lint&#45;&gt;macos&#45;clang&#45;build -->
<g id="edge10" class="edge">
<title>python&#45;lint&#45;&gt;macos&#45;clang&#45;build</title>
<path fill="none" stroke="black" d="M639.77,-293.5C647.28,-291.48 655.14,-289.54 662.56,-288 777.22,-264.23 808.02,-270.99 923.56,-252 929.93,-250.95 936.54,-249.81 943.15,-248.62"/>
<polygon fill="black" stroke="black" points="943.54,-252.1 952.75,-246.86 942.28,-245.22 943.54,-252.1"/>
</g>
<!-- python&#45;lint&#45;&gt;windows&#45;msvc&#45;build -->
<g id="edge13" class="edge">
<title>python&#45;lint&#45;&gt;windows&#45;msvc&#45;build</title>
<path fill="none" stroke="black" d="M558.41,-295.56C505.38,-283.96 414.7,-264.12 351.63,-250.33"/>
<polygon fill="black" stroke="black" points="352.58,-246.95 342.06,-248.23 351.08,-253.79 352.58,-246.95"/>
</g>
<!-- python&#45;lint&#45;&gt;windows&#45;clang&#45;build -->
<g id="edge16" class="edge">
<title>python&#45;lint&#45;&gt;windows&#45;clang&#45;build</title>
<path fill="none" stroke="black" d="M575.27,-290.15C558.15,-280.49 535.53,-267.72 516.37,-256.91"/>
<polygon fill="black" stroke="black" points="518.17,-253.9 507.74,-252.03 514.73,-260 518.17,-253.9"/>
</g>
<!-- ubuntu&#45;gcc&#45;build&#45;extended -->
<g id="node4" class="node">
<title>ubuntu&#45;gcc&#45;build&#45;extended</title>
<ellipse fill="none" stroke="black" cx="1019.56" cy="-162" rx="110.72" ry="18"/>
<text text-anchor="middle" x="1019.56" y="-156.95" font-family="Times,serif" font-size="14.00">ubuntu&#45;gcc&#45;build&#45;extended</text>
</g>
<!-- ubuntu&#45;gcc&#45;build&#45;&gt;ubuntu&#45;gcc&#45;build&#45;extended -->
<g id="edge3" class="edge">
<title>ubuntu&#45;gcc&#45;build&#45;&gt;ubuntu&#45;gcc&#45;build&#45;extended</title>
<path fill="none" stroke="black" d="M878.52,-218.15C904.46,-208.01 939.15,-194.45 967.64,-183.31"/>
<polygon fill="black" stroke="black" points="968.78,-186.62 976.81,-179.72 966.23,-180.1 968.78,-186.62"/>
</g>
<!-- ubuntu&#45;gcc&#45;build&#45;codecov -->
<g id="node15" class="node">
<title>ubuntu&#45;gcc&#45;build&#45;codecov</title>
<ellipse fill="none" stroke="black" cx="1002.56" cy="-90" rx="108.16" ry="18"/>
<text text-anchor="middle" x="1002.56" y="-84.95" font-family="Times,serif" font-size="14.00">ubuntu&#45;gcc&#45;build&#45;codecov</text>
</g>
<!-- ubuntu&#45;gcc&#45;build&#45;extended&#45;&gt;ubuntu&#45;gcc&#45;build&#45;codecov -->
<g id="edge18" class="edge">
<title>ubuntu&#45;gcc&#45;build&#45;extended&#45;&gt;ubuntu&#45;gcc&#45;build&#45;codecov</title>
<path fill="none" stroke="black" d="M1015.36,-143.7C1013.57,-136.32 1011.43,-127.52 1009.42,-119.25"/>
<polygon fill="black" stroke="black" points="1012.84,-118.47 1007.07,-109.58 1006.03,-120.12 1012.84,-118.47"/>
</g>
<!-- ubuntu&#45;clang&#45;build&#45;extended -->
<g id="node6" class="node">
<title>ubuntu&#45;clang&#45;build&#45;extended</title>
<ellipse fill="none" stroke="black" cx="772.56" cy="-162" rx="117.89" ry="18"/>
<text text-anchor="middle" x="772.56" y="-156.95" font-family="Times,serif" font-size="14.00">ubuntu&#45;clang&#45;build&#45;extended</text>
</g>
<!-- ubuntu&#45;clang&#45;build&#45;&gt;ubuntu&#45;clang&#45;build&#45;extended -->
<g id="edge6" class="edge">
<title>ubuntu&#45;clang&#45;build&#45;&gt;ubuntu&#45;clang&#45;build&#45;extended</title>
<path fill="none" stroke="black" d="M691.68,-216.41C705.34,-207.39 722.46,-196.09 737.42,-186.21"/>
<polygon fill="black" stroke="black" points="739.21,-189.22 745.62,-180.79 735.35,-183.38 739.21,-189.22"/>
</g>
<!-- ubuntu&#45;clang&#45;sanitizer&#45;build -->
<g id="node7" class="node">
<title>ubuntu&#45;clang&#45;sanitizer&#45;build</title>
<ellipse fill="none" stroke="black" cx="520.56" cy="-162" rx="115.84" ry="18"/>
<text text-anchor="middle" x="520.56" y="-156.95" font-family="Times,serif" font-size="14.00">ubuntu&#45;clang&#45;sanitizer&#45;build</text>
</g>
<!-- ubuntu&#45;clang&#45;build&#45;&gt;ubuntu&#45;clang&#45;sanitizer&#45;build -->
<g id="edge7" class="edge">
<title>ubuntu&#45;clang&#45;build&#45;&gt;ubuntu&#45;clang&#45;sanitizer&#45;build</title>
<path fill="none" stroke="black" d="M633.43,-217.12C613.24,-207.44 587.18,-194.94 565.19,-184.4"/>
<polygon fill="black" stroke="black" points="566.98,-181.37 556.45,-180.21 563.95,-187.69 566.98,-181.37"/>
</g>
<!-- ubuntu&#45;clang&#45;build&#45;extended&#45;&gt;ubuntu&#45;gcc&#45;build&#45;codecov -->
<g id="edge19" class="edge">
<title>ubuntu&#45;clang&#45;build&#45;extended&#45;&gt;ubuntu&#45;gcc&#45;build&#45;codecov</title>
<path fill="none" stroke="black" d="M823.89,-145.38C858.72,-134.78 904.92,-120.72 941.61,-109.55"/>
<polygon fill="black" stroke="black" points="942.19,-113.03 950.73,-106.77 940.15,-106.34 942.19,-113.03"/>
</g>
<!-- ubuntu&#45;clang&#45;sanitizer&#45;build&#45;extended -->
<g id="node8" class="node">
<title>ubuntu&#45;clang&#45;sanitizer&#45;build&#45;extended</title>
<ellipse fill="none" stroke="black" cx="690.56" cy="-90" rx="152.18" ry="18"/>
<text text-anchor="middle" x="690.56" y="-84.95" font-family="Times,serif" font-size="14.00">ubuntu&#45;clang&#45;sanitizer&#45;build&#45;extended</text>
</g>
<!-- ubuntu&#45;clang&#45;sanitizer&#45;build&#45;&gt;ubuntu&#45;clang&#45;sanitizer&#45;build&#45;extended -->
<g id="edge8" class="edge">
<title>ubuntu&#45;clang&#45;sanitizer&#45;build&#45;&gt;ubuntu&#45;clang&#45;sanitizer&#45;build&#45;extended</title>
<path fill="none" stroke="black" d="M559.99,-144.76C583.59,-135.05 613.85,-122.59 639.3,-112.11"/>
<polygon fill="black" stroke="black" points="640.56,-115.38 648.47,-108.33 637.89,-108.9 640.56,-115.38"/>
</g>
<!-- ubuntu&#45;gcc&#45;build&#45;perf&#45;stats -->
<g id="node16" class="node">
<title>ubuntu&#45;gcc&#45;build&#45;perf&#45;stats</title>
<ellipse fill="none" stroke="black" cx="542.56" cy="-18" rx="111.74" ry="18"/>
<text text-anchor="middle" x="542.56" y="-12.95" font-family="Times,serif" font-size="14.00">ubuntu&#45;gcc&#45;build&#45;perf&#45;stats</text>
</g>
<!-- ubuntu&#45;clang&#45;sanitizer&#45;build&#45;extended&#45;&gt;ubuntu&#45;gcc&#45;build&#45;perf&#45;stats -->
<g id="edge22" class="edge">
<title>ubuntu&#45;clang&#45;sanitizer&#45;build&#45;extended&#45;&gt;ubuntu&#45;gcc&#45;build&#45;perf&#45;stats</title>
<path fill="none" stroke="black" d="M654.74,-72.05C634.59,-62.53 609.25,-50.54 587.75,-40.37"/>
<polygon fill="black" stroke="black" points="589.45,-37.31 578.92,-36.19 586.46,-43.63 589.45,-37.31"/>
</g>
<!-- macos&#45;clang&#45;build&#45;extended -->
<g id="node10" class="node">
<title>macos&#45;clang&#45;build&#45;extended</title>
<ellipse fill="none" stroke="black" cx="1264.56" cy="-162" rx="116.35" ry="18"/>
<text text-anchor="middle" x="1264.56" y="-156.95" font-family="Times,serif" font-size="14.00">macos&#45;clang&#45;build&#45;extended</text>
</g>
<!-- macos&#45;clang&#45;build&#45;&gt;macos&#45;clang&#45;build&#45;extended -->
<g id="edge11" class="edge">
<title>macos&#45;clang&#45;build&#45;&gt;macos&#45;clang&#45;build&#45;extended</title>
<path fill="none" stroke="black" d="M1061.45,-219.42C1100.56,-208.56 1155.76,-193.22 1198.75,-181.28"/>
<polygon fill="black" stroke="black" points="1199.53,-184.7 1208.23,-178.65 1197.65,-177.95 1199.53,-184.7"/>
</g>
<!-- macos&#45;clang&#45;build&#45;extended&#45;&gt;ubuntu&#45;gcc&#45;build&#45;codecov -->
<g id="edge20" class="edge">
<title>macos&#45;clang&#45;build&#45;extended&#45;&gt;ubuntu&#45;gcc&#45;build&#45;codecov</title>
<path fill="none" stroke="black" d="M1208.04,-145.9C1167.21,-134.99 1111.94,-120.22 1069,-108.75"/>
<polygon fill="black" stroke="black" points="1070.12,-105.43 1059.55,-106.23 1068.31,-112.19 1070.12,-105.43"/>
</g>
<!-- windows&#45;msvc&#45;build&#45;extended -->
<g id="node12" class="node">
<title>windows&#45;msvc&#45;build&#45;extended</title>
<ellipse fill="none" stroke="black" cx="125.56" cy="-90" rx="125.56" ry="18"/>
<text text-anchor="middle" x="125.56" y="-84.95" font-family="Times,serif" font-size="14.00">windows&#45;msvc&#45;build&#45;extended</text>
</g>
<!-- windows&#45;msvc&#45;build&#45;&gt;windows&#45;msvc&#45;build&#45;extended -->
<g id="edge14" class="edge">
<title>windows&#45;msvc&#45;build&#45;&gt;windows&#45;msvc&#45;build&#45;extended</title>
<path fill="none" stroke="black" d="M263.06,-216.15C235.76,-191.31 184.53,-144.68 152.9,-115.88"/>
<polygon fill="black" stroke="black" points="155.4,-113.43 145.65,-109.29 150.69,-118.61 155.4,-113.43"/>
</g>
<!-- windows&#45;msvc&#45;build&#45;extended&#45;&gt;ubuntu&#45;gcc&#45;build&#45;perf&#45;stats -->
<g id="edge24" class="edge">
<title>windows&#45;msvc&#45;build&#45;extended&#45;&gt;ubuntu&#45;gcc&#45;build&#45;perf&#45;stats</title>
<path fill="none" stroke="black" d="M204.98,-75.67C276.79,-63.61 382.29,-45.9 456.18,-33.5"/>
<polygon fill="black" stroke="black" points="456.53,-36.99 465.81,-31.88 455.37,-30.09 456.53,-36.99"/>
</g>
<!-- windows&#45;clang&#45;build&#45;extended -->
<g id="node14" class="node">
<title>windows&#45;clang&#45;build&#45;extended</title>
<ellipse fill="none" stroke="black" cx="394.56" cy="-90" rx="125.56" ry="18"/>
<text text-anchor="middle" x="394.56" y="-84.95" font-family="Times,serif" font-size="14.00">windows&#45;clang&#45;build&#45;extended</text>
</g>
<!-- windows&#45;clang&#45;build&#45;&gt;windows&#45;clang&#45;build&#45;extended -->
<g id="edge17" class="edge">
<title>windows&#45;clang&#45;build&#45;&gt;windows&#45;clang&#45;build&#45;extended</title>
<path fill="none" stroke="black" d="M438.05,-217.56C421.88,-209.06 404.82,-196.77 395.56,-180 385.46,-161.69 385.76,-137.86 388.29,-119.47"/>
<polygon fill="black" stroke="black" points="391.71,-120.22 389.93,-109.77 384.81,-119.05 391.71,-120.22"/>
</g>
<!-- windows&#45;clang&#45;build&#45;extended&#45;&gt;ubuntu&#45;gcc&#45;build&#45;perf&#45;stats -->
<g id="edge23" class="edge">
<title>windows&#45;clang&#45;build&#45;extended&#45;&gt;ubuntu&#45;gcc&#45;build&#45;perf&#45;stats</title>
<path fill="none" stroke="black" d="M429.64,-72.41C449.91,-62.82 475.64,-50.65 497.41,-40.36"/>
<polygon fill="black" stroke="black" points="498.83,-43.56 506.37,-36.12 495.84,-37.23 498.83,-43.56"/>
</g>
<!-- ubuntu&#45;gcc&#45;build&#45;codecov&#45;&gt;ubuntu&#45;gcc&#45;build&#45;perf&#45;stats -->
<g id="edge21" class="edge">
<title>ubuntu&#45;gcc&#45;build&#45;codecov&#45;&gt;ubuntu&#45;gcc&#45;build&#45;perf&#45;stats</title>
<path fill="none" stroke="black" d="M924.79,-77.17C844.13,-64.89 718.12,-45.72 633.05,-32.77"/>
<polygon fill="black" stroke="black" points="633.75,-29.34 623.34,-31.29 632.7,-36.26 633.75,-29.34"/>
</g>
</g>
</svg>
