<?xml version="1.0" encoding="UTF-8" standalone="no"?>
<!DOCTYPE svg PUBLIC "-//W3C//DTD SVG 1.1//EN"
 "http://www.w3.org/Graphics/SVG/1.1/DTD/svg11.dtd">
<!-- Generated by graphviz version 12.2.1 (20241206.2353)
 -->
<!-- Pages: 1 -->
<svg width="260pt" height="260pt"
 viewBox="0.00 0.00 259.70 260.00" xmlns="http://www.w3.org/2000/svg" xmlns:xlink="http://www.w3.org/1999/xlink">
<g id="graph0" class="graph" transform="scale(1 1) rotate(0) translate(4 256)">
<polygon fill="white" stroke="none" points="-4,4 -4,-256 255.7,-256 255.7,4 -4,4"/>
<!-- cpp&#45;lint -->
<g id="node1" class="node">
<title>cpp&#45;lint</title>
<ellipse fill="none" stroke="black" cx="71.51" cy="-234" rx="39.58" ry="18"/>
<text text-anchor="middle" x="71.51" y="-228.95" font-family="Times,serif" font-size="14.00">cpp&#45;lint</text>
</g>
<!-- ubuntu -->
<g id="node3" class="node">
<title>ubuntu</title>
<ellipse fill="none" stroke="black" cx="36.51" cy="-162" rx="36.51" ry="18"/>
<text text-anchor="middle" x="36.51" y="-156.95" font-family="Times,serif" font-size="14.00">ubuntu</text>
</g>
<!-- cpp&#45;lint&#45;&gt;ubuntu -->
<g id="edge1" class="edge">
<title>cpp&#45;lint&#45;&gt;ubuntu</title>
<path fill="none" stroke="black" d="M63.04,-216.05C59.12,-208.23 54.38,-198.75 50,-189.98"/>
<polygon fill="black" stroke="black" points="53.18,-188.52 45.58,-181.14 46.92,-191.65 53.18,-188.52"/>
</g>
<!-- mac -->
<g id="node4" class="node">
<title>mac</title>
<ellipse fill="none" stroke="black" cx="118.51" cy="-162" rx="27" ry="18"/>
<text text-anchor="middle" x="118.51" y="-156.95" font-family="Times,serif" font-size="14.00">mac</text>
</g>
<!-- cpp&#45;lint&#45;&gt;mac -->
<g id="edge3" class="edge">
<title>cpp&#45;lint&#45;&gt;mac</title>
<path fill="none" stroke="black" d="M82.65,-216.41C88.29,-208.01 95.26,-197.63 101.55,-188.26"/>
<polygon fill="black" stroke="black" points="104.26,-190.5 106.93,-180.24 98.45,-186.6 104.26,-190.5"/>
</g>
<!-- windows -->
<g id="node5" class="node">
<title>windows</title>
<ellipse fill="none" stroke="black" cx="207.51" cy="-162" rx="44.19" ry="18"/>
<text text-anchor="middle" x="207.51" y="-156.95" font-family="Times,serif" font-size="14.00">windows</text>
</g>
<!-- cpp&#45;lint&#45;&gt;windows -->
<g id="edge5" class="edge">
<title>cpp&#45;lint&#45;&gt;windows</title>
<path fill="none" stroke="black" d="M97.09,-219.83C117.91,-209.12 147.56,-193.86 170.89,-181.85"/>
<polygon fill="black" stroke="black" points="172.48,-184.97 179.77,-177.28 169.28,-178.74 172.48,-184.97"/>
</g>
<!-- shell&#45;lint -->
<g id="node2" class="node">
<title>shell&#45;lint</title>
<ellipse fill="none" stroke="black" cx="172.51" cy="-234" rx="43.67" ry="18"/>
<text text-anchor="middle" x="172.51" y="-228.95" font-family="Times,serif" font-size="14.00">shell&#45;lint</text>
</g>
<!-- shell&#45;lint&#45;&gt;ubuntu -->
<g id="edge2" class="edge">
<title>shell&#45;lint&#45;&gt;ubuntu</title>
<path fill="none" stroke="black" d="M145.96,-219.34C124.65,-208.37 94.54,-192.87 71.3,-180.91"/>
<polygon fill="black" stroke="black" points="72.99,-177.84 62.5,-176.38 69.79,-184.07 72.99,-177.84"/>
</g>
<!-- shell&#45;lint&#45;&gt;mac -->
<g id="edge4" class="edge">
<title>shell&#45;lint&#45;&gt;mac</title>
<path fill="none" stroke="black" d="M159.71,-216.41C153.07,-207.8 144.82,-197.11 137.46,-187.56"/>
<polygon fill="black" stroke="black" points="140.28,-185.49 131.4,-179.71 134.74,-189.76 140.28,-185.49"/>
</g>
<!-- shell&#45;lint&#45;&gt;windows -->
<g id="edge6" class="edge">
<title>shell&#45;lint&#45;&gt;windows</title>
<path fill="none" stroke="black" d="M180.98,-216.05C184.89,-208.23 189.63,-198.75 194.02,-189.98"/>
<polygon fill="black" stroke="black" points="197.1,-191.65 198.44,-181.14 190.83,-188.52 197.1,-191.65"/>
</g>
<!-- perf -->
<g id="node6" class="node">
<title>perf</title>
<ellipse fill="none" stroke="black" cx="118.51" cy="-90" rx="27" ry="18"/>
<text text-anchor="middle" x="118.51" y="-84.95" font-family="Times,serif" font-size="14.00">perf</text>
</g>
<!-- ubuntu&#45;&gt;perf -->
<g id="edge7" class="edge">
<title>ubuntu&#45;&gt;perf</title>
<path fill="none" stroke="black" d="M54.3,-145.81C65.82,-135.97 80.99,-123.03 93.69,-112.18"/>
<polygon fill="black" stroke="black" points="95.93,-114.87 101.27,-105.72 91.39,-109.55 95.93,-114.87"/>
</g>
<!-- mac&#45;&gt;perf -->
<g id="edge8" class="edge">
<title>mac&#45;&gt;perf</title>
<path fill="none" stroke="black" d="M118.51,-143.7C118.51,-136.41 118.51,-127.73 118.51,-119.54"/>
<polygon fill="black" stroke="black" points="122.01,-119.62 118.51,-109.62 115.01,-119.62 122.01,-119.62"/>
</g>
<!-- windows&#45;&gt;perf -->
<g id="edge9" class="edge">
<title>windows&#45;&gt;perf</title>
<path fill="none" stroke="black" d="M187.76,-145.46C175.02,-135.45 158.33,-122.32 144.52,-111.46"/>
<polygon fill="black" stroke="black" points="146.72,-108.74 136.7,-105.31 142.39,-114.24 146.72,-108.74"/>
</g>
<!-- pages -->
<g id="node7" class="node">
<title>pages</title>
<ellipse fill="none" stroke="black" cx="118.51" cy="-18" rx="31.9" ry="18"/>
<text text-anchor="middle" x="118.51" y="-12.95" font-family="Times,serif" font-size="14.00">pages</text>
</g>
<!-- perf&#45;&gt;pages -->
<g id="edge10" class="edge">
<title>perf&#45;&gt;pages</title>
<path fill="none" stroke="black" d="M118.51,-71.7C118.51,-64.41 118.51,-55.73 118.51,-47.54"/>
<polygon fill="black" stroke="black" points="122.01,-47.62 118.51,-37.62 115.01,-47.62 122.01,-47.62"/>
</g>
</g>
</svg>
