<?xml version="1.0" encoding="UTF-8" standalone="no"?>
<!DOCTYPE svg PUBLIC "-//W3C//DTD SVG 1.1//EN"
 "http://www.w3.org/Graphics/SVG/1.1/DTD/svg11.dtd">
<!-- Generated by graphviz version 12.2.1 (20241206.2353)
 -->
<!-- Title: CI_Overview Pages: 1 -->
<svg width="485pt" height="188pt"
 viewBox="0.00 0.00 484.75 188.00" xmlns="http://www.w3.org/2000/svg" xmlns:xlink="http://www.w3.org/1999/xlink">
<g id="graph0" class="graph" transform="scale(1 1) rotate(0) translate(4 184)">
<title>CI_Overview</title>
<polygon fill="white" stroke="none" points="-4,4 -4,-184 480.75,-184 480.75,4 -4,4"/>
<!-- pre&#45;commit -->
<g id="node1" class="node">
<title>pre&#45;commit</title>
<path fill="none" stroke="black" d="M73,-108C73,-108 12,-108 12,-108 6,-108 0,-102 0,-96 0,-96 0,-84 0,-84 0,-78 6,-72 12,-72 12,-72 73,-72 73,-72 79,-72 85,-78 85,-84 85,-84 85,-96 85,-96 85,-102 79,-108 73,-108"/>
<text text-anchor="middle" x="42.5" y="-84.2" font-family="Helvetica,sans-Serif" font-size="14.00">pre&#45;commit</text>
</g>
<!-- ubuntu -->
<g id="node2" class="node">
<title>ubuntu</title>
<path fill="none" stroke="black" d="M207.5,-180C207.5,-180 174.25,-180 174.25,-180 168.25,-180 162.25,-174 162.25,-168 162.25,-168 162.25,-156 162.25,-156 162.25,-150 168.25,-144 174.25,-144 174.25,-144 207.5,-144 207.5,-144 213.5,-144 219.5,-150 219.5,-156 219.5,-156 219.5,-168 219.5,-168 219.5,-174 213.5,-180 207.5,-180"/>
<text text-anchor="middle" x="190.88" y="-156.2" font-family="Helvetica,sans-Serif" font-size="14.00">ubuntu</text>
</g>
<!-- pre&#45;commit&#45;&gt;ubuntu -->
<g id="edge1" class="edge">
<title>pre&#45;commit&#45;&gt;ubuntu</title>
<path fill="none" stroke="#333333" d="M42.75,-108.17C42.75,-129.5 42.75,-162 42.75,-162 42.75,-162 150.45,-162 150.45,-162"/>
<polygon fill="#333333" stroke="#333333" points="150.45,-165.5 160.45,-162 150.45,-158.5 150.45,-165.5"/>
</g>
<!-- mac -->
<g id="node3" class="node">
<title>mac</title>
<path fill="none" stroke="black" d="M205.88,-108C205.88,-108 175.88,-108 175.88,-108 169.88,-108 163.88,-102 163.88,-96 163.88,-96 163.88,-84 163.88,-84 163.88,-78 169.88,-72 175.88,-72 175.88,-72 205.88,-72 205.88,-72 211.88,-72 217.88,-78 217.88,-84 217.88,-84 217.88,-96 217.88,-96 217.88,-102 211.88,-108 205.88,-108"/>
<text text-anchor="middle" x="190.88" y="-84.2" font-family="Helvetica,sans-Serif" font-size="14.00">mac</text>
</g>
<!-- pre&#45;commit&#45;&gt;mac -->
<g id="edge2" class="edge">
<title>pre&#45;commit&#45;&gt;mac</title>
<path fill="none" stroke="#333333" d="M85.42,-90C85.42,-90 151.97,-90 151.97,-90"/>
<polygon fill="#333333" stroke="#333333" points="151.97,-93.5 161.97,-90 151.97,-86.5 151.97,-93.5"/>
</g>
<!-- windows -->
<g id="node4" class="node">
<title>windows</title>
<path fill="none" stroke="black" d="M212.75,-36C212.75,-36 169,-36 169,-36 163,-36 157,-30 157,-24 157,-24 157,-12 157,-12 157,-6 163,0 169,0 169,0 212.75,0 212.75,0 218.75,0 224.75,-6 224.75,-12 224.75,-12 224.75,-24 224.75,-24 224.75,-30 218.75,-36 212.75,-36"/>
<text text-anchor="middle" x="190.88" y="-12.2" font-family="Helvetica,sans-Serif" font-size="14.00">windows</text>
</g>
<!-- pre&#45;commit&#45;&gt;windows -->
<g id="edge3" class="edge">
<title>pre&#45;commit&#45;&gt;windows</title>
<path fill="none" stroke="#333333" d="M42.75,-71.83C42.75,-50.5 42.75,-18 42.75,-18 42.75,-18 145.01,-18 145.01,-18"/>
<polygon fill="#333333" stroke="#333333" points="145.01,-21.5 155.01,-18 145.01,-14.5 145.01,-21.5"/>
</g>
<!-- perf -->
<g id="node5" class="node">
<title>perf</title>
<path fill="none" stroke="black" d="M338.75,-108C338.75,-108 308.75,-108 308.75,-108 302.75,-108 296.75,-102 296.75,-96 296.75,-96 296.75,-84 296.75,-84 296.75,-78 302.75,-72 308.75,-72 308.75,-72 338.75,-72 338.75,-72 344.75,-72 350.75,-78 350.75,-84 350.75,-84 350.75,-96 350.75,-96 350.75,-102 344.75,-108 338.75,-108"/>
<text text-anchor="middle" x="323.75" y="-84.2" font-family="Helvetica,sans-Serif" font-size="14.00">perf</text>
</g>
<!-- ubuntu&#45;&gt;perf -->
<g id="edge4" class="edge">
<title>ubuntu&#45;&gt;perf</title>
<path fill="none" stroke="#333333" d="M219.71,-162C258.79,-162 323.75,-162 323.75,-162 323.75,-162 323.75,-119.68 323.75,-119.68"/>
<polygon fill="#333333" stroke="#333333" points="327.25,-119.68 323.75,-109.68 320.25,-119.68 327.25,-119.68"/>
</g>
<!-- mac&#45;&gt;perf -->
<g id="edge5" class="edge">
<title>mac&#45;&gt;perf</title>
<path fill="none" stroke="#333333" d="M218.08,-90C218.08,-90 285.06,-90 285.06,-90"/>
<polygon fill="#333333" stroke="#333333" points="285.06,-93.5 295.06,-90 285.06,-86.5 285.06,-93.5"/>
</g>
<!-- windows&#45;&gt;perf -->
<g id="edge6" class="edge">
<title>windows&#45;&gt;perf</title>
<path fill="none" stroke="#333333" d="M225.09,-18C264.46,-18 323.75,-18 323.75,-18 323.75,-18 323.75,-60.32 323.75,-60.32"/>
<polygon fill="#333333" stroke="#333333" points="320.25,-60.32 323.75,-70.32 327.25,-60.32 320.25,-60.32"/>
</g>
<!-- pages -->
<g id="node6" class="node">
<title>pages</title>
<path fill="none" stroke="black" d="M464.75,-108C464.75,-108 434.75,-108 434.75,-108 428.75,-108 422.75,-102 422.75,-96 422.75,-96 422.75,-84 422.75,-84 422.75,-78 428.75,-72 434.75,-72 434.75,-72 464.75,-72 464.75,-72 470.75,-72 476.75,-78 476.75,-84 476.75,-84 476.75,-96 476.75,-96 476.75,-102 470.75,-108 464.75,-108"/>
<text text-anchor="middle" x="449.75" y="-84.2" font-family="Helvetica,sans-Serif" font-size="14.00">pages</text>
</g>
<!-- perf&#45;&gt;pages -->
<g id="edge7" class="edge">
<title>perf&#45;&gt;pages</title>
<path fill="none" stroke="#333333" d="M351.09,-90C351.09,-90 410.95,-90 410.95,-90"/>
<polygon fill="#333333" stroke="#333333" points="410.95,-93.5 420.95,-90 410.95,-86.5 410.95,-93.5"/>
</g>
</g>
</svg>
